<svg aria-hidden="true"  xmlns="http://www.w3.org/2000/svg">
<defs>

<symbol id="icon-arrow-down" viewBox="0 0 32 32">
<path fill="#4440f6" style="fill:var(--color1, #4440f6)" d="M3.76 9.143 0 12.622l16 14.806 16-14.806-3.76-3.479L16 20.445 3.76 9.143z"/></symbol>

<symbol id="icon-arrow-up" viewBox="0 0 32 32">
<path fill="#4440f6" style="fill:var(--color1, #4440f6)" d="M3.76 25.143 0 21.664 16 6.858l16 14.806-3.76 3.479L16 13.841 3.76 25.143z"/></symbol>

<symbol id="icon-calendar" viewBox="0 0 32 32">
<path fill="#4440f7" style="fill:var(--color2, #4440f7)" d="M22.667 4H28a1.335 1.335 0 0 1 1.334 1.334v21.333A1.335 1.335 0 0 1 28 28.001H4a1.33 1.33 0 0 1-1.333-1.334V5.334A1.333 1.333 0 0 1 4 4h5.333V1.333H12V4h8V1.333h2.667V4zm4 10.667H5.334v10.667h21.333V14.667zm-6.667-8h-8v2.667H9.333V6.667h-4V12h21.333V6.667h-4v2.667h-2.667V6.667zM8 17.333h2.667V20H8v-2.667zm6.667 0h2.667V20h-2.667v-2.667zm6.666 0H24V20h-2.667v-2.667z"/></symbol>

<symbol id="icon-favorite" viewBox="0 0 32 32">
<path fill="#4440f6" style="fill:var(--color1, #4440f6)" d="M32 16c0 8.837-7.163 16-16 16S0 24.837 0 16 7.163 0 16 0s16 7.163 16 16z"/>
<path fill="none" stroke="#f4f4f4" style="stroke:var(--color3, #f4f4f4)" stroke-linejoin="round" stroke-linecap="round" d="M22.63 10.457a4.111 4.111 0 0 0-4.496-.895 4.1 4.1 0 0 0-1.338.895l-.795.795-.795-.795a4.125 4.125 0 0 0-5.836 0 4.125 4.125 0 0 0 0 5.835l6.63 6.63 6.63-6.63a4.111 4.111 0 0 0 .895-4.496 4.116 4.116 0 0 0-.895-1.338v0z"/></symbol>

<symbol id="icon-home-1" viewBox="0 0 32 32">
<path fill="#4440f6" style="fill:var(--color1, #4440f6)" d="M32 16c0 8.837-7.163 16-16 16S0 24.837 0 16 7.163 0 16 0s16 7.163 16 16z"/>
<path fill="none" stroke="#f4f4f4" style="stroke:var(--color3, #f4f4f4)" stroke-linejoin="round" stroke-linecap="round" d="M9.25 13.75 16 8.5l6.75 5.25V22a1.503 1.503 0 0 1-1.5 1.5h-10.5a1.503 1.503 0 0 1-1.5-1.5v-8.25z"/>
<path fill="none" stroke="#f4f4f4" style="stroke:var(--color3, #f4f4f4)" stroke-linejoin="round" stroke-linecap="round" d="M13.75 23.5V16h4.5v7.5"/></symbol>

<symbol id="icon-check" viewBox="0 0 32 32">
<path fill="#00dd73" style="fill: var(--color1, #00dd73)" d="M28.779 6.39c-0.277 0.008-0.54 0.124-0.733 0.323l-16.312 16.313-6.713-6.713c-0.098-0.102-0.216-0.184-0.346-0.24s-0.27-0.086-0.412-0.088c-0.142-0.001-0.283 0.025-0.414 0.079s-0.251 0.133-0.351 0.233c-0.1 0.1-0.18 0.22-0.233 0.351s-0.081 0.272-0.079 0.414c0.001 0.142 0.031 0.282 0.087 0.412s0.138 0.248 0.24 0.346l7.467 7.467c0.2 0.2 0.471 0.312 0.754 0.312s0.554-0.112 0.754-0.312l17.067-17.067c0.154-0.15 0.259-0.343 0.302-0.553s0.021-0.429-0.063-0.627c-0.084-0.198-0.225-0.366-0.406-0.482s-0.393-0.175-0.608-0.168v0z"></path>
</symbol>

<symbol id="icon-like-active" viewBox="0 0 32 32">
<path fill="#4b48da" style="fill:var(--color4, #4b48da)" d="M9.333 4c-3.681 0-6.667 2.955-6.667 6.6 0 2.943 1.167 9.927 12.651 16.987a1.316 1.316 0 0 0 1.366 0c11.484-7.06 12.651-14.044 12.651-16.987 0-3.645-2.985-6.6-6.667-6.6S16 8 16 8s-2.985-4-6.667-4z"/></symbol>

<symbol id="icon-like-nonactive" viewBox="0 0 32 32">
<path fill="none" stroke="#4440f7" style="stroke:var(--color2, #4440f7)" stroke-linejoin="round" stroke-linecap="round" stroke-width="2" d="M9.333 4c-3.681 0-6.667 2.955-6.667 6.6 0 2.943 1.167 9.927 12.651 16.987a1.316 1.316 0 0 0 1.366 0c11.484-7.06 12.651-14.044 12.651-16.987 0-3.645-2.985-6.6-6.667-6.6S16 8 16 8s-2.985-4-6.667-4z"/></symbol>

<symbol id="icon-read-1" viewBox="0 0 32 32">
<path fill="#4440f6" style="fill:var(--color1, #4440f6)" d="M32 16c0 8.837-7.163 16-16 16S0 24.837 0 16 7.163 0 16 0s16 7.163 16 16z"/>
<path fill="none" stroke="#f4f4f4" style="stroke:var(--color3, #f4f4f4)" stroke-linejoin="round" stroke-linecap="round" d="M8.5 9.25H13a3.004 3.004 0 0 1 3 3v10.5a2.25 2.25 0 0 0-2.25-2.25H8.5V9.25zM23.5 9.25H19a3.004 3.004 0 0 0-3 3v10.5a2.25 2.25 0 0 1 2.25-2.25h5.25V9.25z"/></symbol>

<symbol id="icon-search" viewBox="0 0 32 32">
<path d="M13.333 23.6c2.367 0 4.665-.753 6.529-2.138l5.861 5.568 1.885-1.791-5.861-5.568a9.755 9.755 0 0 0 2.252-6.204c0-5.587-4.785-10.133-10.667-10.133S2.665 7.88 2.665 13.467c0 5.587 4.785 10.133 10.667 10.133zm0-17.733c4.412 0 8 3.409 8 7.6s-3.588 7.6-8 7.6-8-3.409-8-7.6 3.588-7.6 8-7.6z"/></symbol>

<symbol id="icon-moon" viewBox="0 0 32 32">
<path fill="none" stroke="var(--switch-off-color)" stroke-linejoin="round" stroke-linecap="round" stroke-miterlimit="4" stroke-width="2.2857" d="M28 17.053c-0.584 6.134-5.71 10.893-11.947 10.893-6.627 0-11.998-5.372-11.998-11.998 0-6.237 4.759-11.363 10.845-11.944l0.048-0.004c-1.141 1.53-1.827 3.458-1.827 5.546 0 5.155 4.179 9.333 9.333 9.333 2.088 0 4.016-0.686 5.571-1.844l-0.025 0.018z"></path></symbol>

<symbol id="icon-sun" viewBox="0 0 32 32">
<path fill="none" stroke="#4b48db" style="stroke: var(--color1, #4b48db)" stroke-linejoin="round" stroke-linecap="round" stroke-miterlimit="4" stroke-width="2.2857" d="M16 1.778v2.586M16 27.636v2.586M5.941 5.943l1.836 1.836M24.222 24.224l1.836 1.836M1.778 16h2.586M27.636 16h2.586M5.943 26.059l1.836-1.836M24.222 7.778l1.836-1.836M22.464 16c0 3.57-2.894 6.464-6.464 6.464s-6.464-2.894-6.464-6.464v0c0-3.57 2.894-6.464 6.464-6.464s6.464 2.894 6.464 6.464v0z"></path></symbol>

<symbol id="icon-menu" viewBox="0 0 32 32">
<path d="M4 10h24c1.105 0 2-0.895 2-2s-0.895-2-2-2v0h-24c-1.105 0-2 0.895-2 2s0.895 2 2 2v0zM28 14h-24c-1.105 0-2 0.895-2 2s0.895 2 2 2v0h24c1.105 0 2-0.895 2-2s-0.895-2-2-2v0zM28 22h-24c-1.105 0-2 0.895-2 2s0.895 2 2 2v0h24c1.105 0 2-0.895 2-2s-0.895-2-2-2v0z"></path></symbol>

<symbol id="icon-location" viewBox="0 0 32 32">
<path fill="#fff" style="fill: var(--color1, #fff)" d="M16 2c-2.916 0.003-5.712 1.163-7.774 3.226s-3.222 4.858-3.226 7.774c-0.003 2.383 0.775 4.702 2.216 6.6 0 0 0.3 0.395 0.349 0.452l8.435 9.948 8.439-9.953c0.044-0.053 0.345-0.447 0.345-0.447l0.001-0.003c1.44-1.897 2.218-4.215 2.215-6.597-0.003-2.916-1.163-5.712-3.226-7.774s-4.858-3.222-7.774-3.226zM16 17c-0.791 0-1.565-0.235-2.222-0.674s-1.171-1.064-1.473-1.795c-0.303-0.731-0.382-1.535-0.228-2.311s0.535-1.489 1.095-2.048c0.559-0.559 1.272-0.94 2.048-1.095s1.58-0.075 2.311 0.228c0.731 0.303 1.356 0.815 1.795 1.473s0.674 1.431 0.674 2.222c-0.001 1.060-0.423 2.077-1.173 2.827s-1.767 1.172-2.827 1.173z"></path>
</symbol>

<symbol id="icon-favorite-1" viewBox="0 0 32 32">
<path fill="#4440f6" style="fill: var(--color1, #4440f6)" d="M32 16c0 8.837-7.163 16-16 16s-16-7.163-16-16c0-8.837 7.163-16 16-16s16 7.163 16 16z">
</path>
<path fill="none" stroke="#f4f4f4" style="stroke: var(--color2, #f4f4f4)" stroke-linejoin="round" stroke-linecap="round" stroke-miterlimit="4" stroke-width="1" d="M22.63 10.457c-0.747-0.747-1.778-1.208-2.918-1.208s-2.171 0.462-2.918 1.208l-0.795 0.795-0.795-0.795c-0.745-0.74-1.772-1.197-2.906-1.197-2.279 0-4.126 1.847-4.126 4.126 0 1.134 0.457 2.161 1.197 2.906l6.63 6.63 6.63-6.63c0.747-0.747 1.208-1.778 1.208-2.918s-0.462-2.171-1.208-2.918v0z"></path></symbol>

<symbol id="icon-home" viewBox="0 0 32 32">
<path fill="#4440f6" style="fill: var(--color1, #4440f6)" d="M32 16c0 8.837-7.163 16-16 16s-16-7.163-16-16c0-8.837 7.163-16 16-16s16 7.163 16 16z">
</path>
<path fill="none" stroke="#f4f4f4" style="stroke: var(--color2, #f4f4f4)" stroke-linejoin="round" stroke-linecap="round" stroke-miterlimit="4" stroke-width="1" d="M9.25 13.75l6.75-5.25 6.75 5.25v8.25c0 0.828-0.672 1.5-1.5 1.5v0h-10.5c-0.828 0-1.5-0.672-1.5-1.5v0-8.25z">
</path>
<path fill="none" stroke="#f4f4f4" style="stroke: var(--color2, #f4f4f4)" stroke-linejoin="round" stroke-linecap="round" stroke-miterlimit="4" stroke-width="1" d="M13.75 23.5v-7.5h4.5v7.5"></path></symbol>

<symbol id="icon-read" viewBox="0 0 32 32">
<path fill="#4440f6" style="fill: var(--color1, #4440f6)" d="M32 16c0 8.837-7.163 16-16 16s-16-7.163-16-16c0-8.837 7.163-16 16-16s16 7.163 16 16z">
</path>
<path fill="none" stroke="#f4f4f4" style="stroke: var(--color2, #f4f4f4)" stroke-linejoin="round" stroke-linecap="round" stroke-miterlimit="4" stroke-width="1" d="M8.5 9.25h4.5c1.657 0 3 1.343 3 3v0 10.5c0-1.243-1.007-2.25-2.25-2.25v0h-5.25v-11.25zM23.5 9.25h-4.5c-1.657 0-3 1.343-3 3v0 10.5c0-1.243 1.007-2.25 2.25-2.25v0h5.25v-11.25z"></path></symbol>

<symbol id="icon-arrow-right" viewBox="0 0 32 32">
<path fill="none" stroke="#f4f4f4" style="stroke: var(--color1, #f4f4f4)" stroke-linejoin="round" stroke-linecap="round" stroke-miterlimit="4" stroke-width="2.6667" d="M12 24l8-8-8-8"></path></symbol>

<symbol id="icon-close" viewBox="0 0 32 32">
<path d="M6.653 5.32c-0.736 0-1.333 0.597-1.333 1.333 0 0.375 0.155 0.713 0.404 0.956l0 0 8.391 8.391-8.391 8.391c-0.251 0.243-0.407 0.583-0.407 0.959 0 0.736 0.597 1.333 1.333 1.333 0.376 0 0.716-0.156 0.959-0.407l8.391-8.391 8.391 8.391c0.243 0.251 0.583 0.407 0.959 0.407 0.736 0 1.333-0.597 1.333-1.333 0-0.376-0.156-0.716-0.407-0.959l-8.391-8.391 8.391-8.391c0.25-0.243 0.405-0.582 0.405-0.957 0-0.736-0.597-1.333-1.333-1.333-0.014 0-0.028 0-0.043 0.001l0.002-0c-0.36 0.011-0.683 0.164-0.916 0.404l-8.391 8.391-8.391-8.391c-0.242-0.249-0.581-0.404-0.956-0.404v0z"></path></symbol>

</defs></svg>